<svg id="图层_1" data-name="图层 1" xmlns="http://www.w3.org/2000/svg" viewBox="0 0 970.48 333.81"><defs><style>.cls-1{fill:#593d45;}.cls-2{fill:#0a78ff;}.cls-3{font-size:227.23px;fill:#e9f4ff;font-family:FZQKBYSJW--GB1-0, FZQingKeBenYueSongS-R-GB;}</style></defs><title>logo-new-txt</title><path class="cls-1" d="M482.51,266.64,377.07,205.77a45.16,45.16,0,0,0-45.16,0l-128,73.91v.14l.1.06,60,34,.32.2L354.5,262l90.59,52.3V418.93l-90.59,52.3-90.59-52.3-59.69,34.82,127.7,73.73a45.16,45.16,0,0,0,45.16,0L482.51,466.6a45.16,45.16,0,0,0,22.58-39.11V305.75A45.16,45.16,0,0,0,482.51,266.64Z" transform="translate(-173.46 -199.72)"/><polygon class="cls-2" points="117.36 166.91 0 234.66 0 99.15 117.36 166.91"/><text class="cls-3" transform="translate(398.79 238.8) scale(1.16 1)">LVLU</text></svg>